# xmcd
#
# Track frame offsets:
#	150
#	17620
#	40865
#	64192
#	75531
#	84981
#	96506
#	117599
#	135063
#	149663
#	165034
#	183539
#	198770
#	230549
#	253739
#	271007
#	297930
#	314022
#
# Disc length: 4639 seconds
#
# Revision: 0
# Processed by: cddbd v1.5PL3 Copyright (c) Steve Scherf et al.
# Submitted via: dBpowerAMP V4.0
#
DISCID=f4121d12
DTITLE=Chicken Shack - The Anthology 1967-2001 - CD2
DYEAR=2004
DGENRE=Blues
TTITLE0=Mine All The Time 
TTITLE1=Cryin´ Won´t Help You
TTITLE2=Poor Boy
TTITLE3=The Looser
TTITLE4=Quick Step
TTITLE5=Unlucky Boy
TTITLE6=As Times Goes Passing Bye
TTITLE7=Hear Me Cry
TTITLE8=Meeting On A Hill
TTITLE9=Use What You´ve Got
TTITLE10=Little Bird
TTITLE11=Let Me Love You Baby
TTITLE12=Back Door Man
TTITLE13=Tell Me
TTITLE14=Strange Situations
TTITLE15=The House That Love Lives In
TTITLE16=I Know
TTITLE17=The Last Time
EXTD=
EXTT0=
EXTT1=
EXTT2=
EXTT3=
EXTT4=
EXTT5=
EXTT6=
EXTT7=
EXTT8=
EXTT9=
EXTT10=
EXTT11=
EXTT12=
EXTT13=
EXTT14=
EXTT15=
EXTT16=
EXTT17=
PLAYORDER=
